<svg width="32" height="34" viewBox="0 0 32 34" fill="none" xmlns="http://www.w3.org/2000/svg">
<path fill-rule="evenodd" clip-rule="evenodd" d="M31.9174 19.9368V19.9375C31.9201 22.5703 31.9227 25.2045 31.9089 27.8355C31.8959 30.8256 29.8956 32.8837 26.9178 32.929C20.8003 33.0196 14.6763 33.0908 8.55239 33.1232C5.4192 33.1426 3.29589 31.0197 3.37357 27.8614C3.41241 26.4051 3.28941 25.4214 1.46387 25.7514C0.881256 25.855 0.331014 25.5896 0.318067 24.936C0.30512 24.1917 0.907147 23.8681 1.54155 23.9716C3.2894 24.2499 3.52892 23.3374 3.34119 21.9264C3.25704 21.2857 3.26352 20.6126 3.32825 19.9654C3.48362 18.4768 3.30884 17.3701 1.35383 17.7519C0.700009 17.8814 0.0785315 17.5642 0.0396904 16.8782C-0.00562426 16.0433 0.738841 15.7391 1.40561 15.8427C3.14052 16.1145 3.41889 15.2408 3.21173 13.8298C3.14052 13.3638 3.14699 12.8784 3.18583 12.406C3.30883 10.8915 3.36061 9.49352 1.1143 9.96599C0.505786 10.0954 0.0202714 9.70063 0.000850847 9.09225C-0.0250432 8.44504 0.544642 8.10202 1.08842 8.21205C3.09137 8.60871 3.14598 7.51282 3.22201 5.98718L3.22467 5.93387C3.37356 3.05378 5.63929 1.01507 8.53943 0.99565C14.8382 0.956817 21.1369 0.969761 27.4421 1.01507C30.0186 1.03448 31.9736 3.09261 31.9865 5.72676C32.0047 8.30376 32.0006 10.8808 31.9965 13.46V13.4605V13.4611V13.4617C31.9948 14.5677 31.993 15.6741 31.993 16.7811H31.9153C31.9153 17.8321 31.9164 18.8837 31.9174 19.9354V19.9361V19.9368ZM30.0315 16.8523C30.0315 17.9045 30.0332 18.9567 30.035 20.0089C30.039 22.4646 30.0431 24.9203 30.025 27.376C30.0056 30.0295 28.9892 31.1104 26.3998 31.1363C20.4571 31.201 14.508 31.2333 8.56526 31.2333C6.31895 31.2333 5.33497 30.2172 5.3026 27.939C5.2055 20.9815 5.11488 14.0305 5.05014 7.073C5.02425 4.0829 6.27364 2.84673 9.25793 2.82731C14.9093 2.79495 20.5542 2.76906 26.2056 2.75612C29.2029 2.74964 30.1998 3.81107 30.1804 6.85295C30.1665 9.22954 30.1691 11.6094 30.1718 13.9879C30.1728 14.9387 30.1739 15.8893 30.1739 16.8394C30.1286 16.8523 30.0833 16.8523 30.0315 16.8523ZM20.042 9.94516L20.0404 9.94516C19.4482 9.94588 18.8558 9.9466 18.2627 9.9466V9.94656C18.2627 9.9401 18.2627 9.93363 18.2692 9.92071H12.579L12.5364 9.92114C11.9395 9.92704 11.2963 9.93338 11.2584 10.7362C11.2195 11.5064 11.8086 11.7135 12.456 11.7199C16.1847 11.7394 19.9199 11.7458 23.6552 11.7458C24.2831 11.7458 24.8851 11.6034 24.8722 10.7944C24.8592 9.9466 24.1989 9.9466 23.5969 9.9466C22.4103 9.94229 21.2266 9.94372 20.042 9.94516ZM17.9066 16.108C18.5364 16.108 19.167 16.1087 19.7978 16.1095C21.0601 16.1109 22.3234 16.1123 23.5838 16.108C24.2377 16.108 24.8138 16.2504 24.8203 17.0271C24.8203 17.8425 24.1794 17.9073 23.5579 17.9073C21.7227 17.9073 19.8891 17.904 18.0554 17.9008C16.2218 17.8976 14.3882 17.8943 12.553 17.8943C11.9121 17.8943 11.2971 17.7972 11.3165 16.9947C11.3359 16.2245 11.9315 16.0951 12.5789 16.1016C13.9091 16.1113 15.2394 16.11 16.5697 16.1088C17.0132 16.1084 17.4566 16.108 17.9001 16.108C17.9066 16.1016 17.9066 16.108 17.9066 16.108ZM15.5766 21.9403C15.3323 21.9431 15.0883 21.9459 14.8448 21.9459V22.0559C14.5468 22.0559 14.2495 22.0566 13.9524 22.0573C13.359 22.0588 12.7666 22.0602 12.1713 22.0559C11.621 22.0494 11.2455 22.2953 11.1743 22.8519C11.1031 23.4344 11.4851 23.8033 11.99 23.8098C13.8285 23.8292 15.6669 23.7968 17.499 23.7192C17.9909 23.6998 18.4247 23.3503 18.3599 22.7743C18.3017 22.2241 17.8356 21.9847 17.3371 21.9588C16.752 21.9268 16.1636 21.9335 15.5766 21.9403Z" fill="#003087"/>
</svg>
