<svg width="32" height="32" viewBox="0 0 32 32" fill="none" xmlns="http://www.w3.org/2000/svg">
<path fill-rule="evenodd" clip-rule="evenodd" d="M31.514 18.2278C30.7618 14.8627 29.7801 11.5422 26.9689 9.01838C29.5889 6.7686 30.0798 4.30212 28.3458 2.37101C26.7585 0.605596 24.113 0.49725 22.411 2.12882C20.4604 3.98983 20.7217 6.43718 23.1377 8.76982C23.0429 8.85672 22.9473 8.94323 22.8516 9.02984L22.8515 9.02988C22.5612 9.29259 22.2699 9.55617 21.9966 9.83416C21.5504 10.293 21.3273 10.8284 21.8436 11.3638C22.3227 11.8676 22.7471 11.5519 23.1821 11.2283L23.2142 11.2044C25.0565 9.83416 25.8342 9.98712 27.1474 11.8864C28.678 14.1058 29.277 16.6518 29.8767 19.2005C29.9314 19.4329 29.9861 19.6654 30.0415 19.8976C30.2455 20.7453 29.9268 20.9174 29.1809 20.8982C28.1928 20.8728 27.1984 20.8664 26.2103 20.9492C25.6366 20.9938 24.9545 21.1723 25.0437 21.9562C25.1266 22.7019 25.796 22.7656 26.3952 22.7656C26.7093 22.7656 27.0257 22.7449 27.3416 22.7242C27.5515 22.7105 27.7611 22.6968 27.9697 22.6892C32.3746 22.5171 32.4639 22.498 31.514 18.2278ZM18.2604 9.11408C21.6771 12.4634 22.4859 16.7336 23.2909 20.9839L23.2912 20.9855C23.3332 21.2072 23.3752 21.4289 23.4176 21.6504C23.5642 22.4279 23.0287 22.8549 22.2637 22.8549C18.1712 22.8613 14.0786 22.8549 9.97968 22.8422C9.0171 22.8422 8.55174 22.3196 8.75573 21.3763C8.84713 20.9599 8.93563 20.5421 9.02416 20.1242L9.02422 20.1239C9.85567 16.1986 10.6891 12.2642 13.9384 9.40725C14.6971 8.73878 14.2459 8.48998 13.8469 8.26997C13.7096 8.19421 13.5784 8.12187 13.5049 8.03699C12.1343 6.43728 12.1088 3.93257 13.5304 2.45396C15.0539 0.867006 17.4253 0.68218 19.0891 2.0142C21.4541 3.90708 21.1354 6.79419 18.2604 9.11408ZM13.1751 31.415H13.1745H13.1736C10.4134 31.4162 7.65127 31.4174 4.89277 31.4078C4.37004 31.4078 3.82819 31.3696 3.33734 31.2166C1.4058 30.6048 0.0926185 28.8776 0.277485 27.2779C0.481476 25.5507 2.60425 23.9191 4.81628 23.9C8.41124 23.8713 12.0026 23.8749 15.5958 23.8785H15.5964L15.6015 23.8785C16.7978 23.8797 17.9943 23.8809 19.1912 23.8809C19.7039 23.8809 20.2167 23.8806 20.7297 23.8804H20.7302H20.7307H20.7311H20.7316H20.732H20.7325H20.7329H20.7332H20.7335H20.7337H20.734H20.7343H20.7345H20.7348C22.7911 23.8794 24.8499 23.8783 26.9046 23.8936L26.97 23.8936C27.4724 23.8934 27.9897 23.8931 28.4601 24.0275C30.6912 24.6584 32.0809 26.3219 31.9024 28.0682C31.7303 29.7699 29.5629 31.3759 27.3317 31.4078C26.0481 31.4248 24.7616 31.4191 23.476 31.4135L23.4753 31.4135C22.8331 31.4106 22.1911 31.4078 21.5499 31.4078H15.9401C15.9369 31.4078 15.9354 31.4078 15.9346 31.4086C15.9338 31.4094 15.9338 31.411 15.9338 31.4141V31.4142C15.0157 31.4142 14.0973 31.4146 13.1787 31.415H13.1781H13.1775H13.1769H13.1763H13.1757H13.1751ZM5.18613 9.03121C2.45776 6.60935 2.0179 4.12376 3.96856 2.19902C5.66423 0.529208 8.35437 0.573821 9.91617 2.29462C11.6246 4.18112 11.223 6.83242 8.89622 8.6998C8.98204 8.77334 9.06786 8.84427 9.15306 8.91468C9.33364 9.06391 9.51139 9.21081 9.68031 9.37537C9.73152 9.42476 9.78484 9.47466 9.83885 9.52521L9.83889 9.52525C10.3563 10.0096 10.9372 10.5533 10.3369 11.2746C9.71632 12.0181 9.26079 11.5405 8.83088 11.0897L8.83087 11.0897C8.72644 10.9802 8.62352 10.8723 8.52011 10.7839C7.43004 9.85974 6.4547 10.1593 5.62599 11.1217C3.48228 13.5946 2.82482 16.6643 2.168 19.731L2.08165 20.1335C1.91693 20.9115 2.40507 20.9052 2.87868 20.8991H2.87879H2.8789H2.87901H2.87912H2.87923C2.93698 20.8984 2.99451 20.8976 3.0506 20.8983C3.36675 20.9044 3.68354 20.9053 4.00058 20.9062H4.0008H4.00085C4.67458 20.9081 5.34937 20.9101 6.02122 20.9621C6.53119 21.0067 7.1113 21.1851 7.07942 21.8926C7.05392 22.5809 6.5057 22.7593 5.97023 22.7593C4.74423 22.7545 3.51463 22.7174 2.28684 22.6803C1.88032 22.668 1.474 22.6557 1.06808 22.6446C0.35411 22.6255 0.0481218 22.2431 0.00987354 21.5357C-0.187742 18.2279 2.61713 11.4339 5.18613 9.03121ZM26.6626 25.6909H16.1507V25.7037C14.9629 25.7037 13.7751 25.703 12.5873 25.7023C10.2116 25.7009 7.83598 25.6994 5.46033 25.7037C3.99415 25.7037 2.55348 25.9459 2.10725 27.5774C1.82039 28.6099 3.53518 29.6041 5.46672 29.6041C12.5363 29.6105 19.5995 29.6105 26.669 29.6041C28.5623 29.6041 30.3408 28.5653 30.0412 27.5711C29.5631 25.9777 28.1416 25.6909 26.6626 25.6909ZM14.5006 21.088H14.4999H14.4996H14.4994H14.4991C13.5255 21.0866 12.5509 21.0852 11.5735 21.0895L11.5042 21.0904C10.9706 21.098 10.499 21.1047 10.7129 20.2737C10.7507 20.1253 10.7883 19.9769 10.826 19.8285C11.5502 16.9733 12.2754 14.114 14.1297 11.727C15.5704 9.87239 16.7816 9.8915 18.1968 11.7589C19.9151 14.0206 20.5412 16.7076 21.1665 19.3909L21.1666 19.3913L21.1667 19.3918L21.1667 19.3919C21.2303 19.6648 21.2939 19.9376 21.3586 20.2099C21.5307 20.9365 21.1801 21.1213 20.5172 21.1086C19.4666 21.0865 18.413 21.0919 17.3605 21.0974C16.8931 21.0998 16.4258 21.1022 15.9593 21.1022V21.0895C15.4736 21.0895 14.9879 21.0887 14.502 21.088H14.5013H14.5006ZM18.847 5.27085C18.8852 4.08542 17.7633 2.95736 16.5202 2.93824C15.2836 2.91912 14.219 4.00257 14.3019 5.30272C14.3911 6.60924 15.0732 7.48875 16.4565 7.56523C17.6868 7.63534 18.8024 6.50089 18.847 5.27085ZM25.2094 7.40591C23.9982 7.40591 22.8508 6.25235 22.9719 5.0223C23.0994 3.72214 23.807 2.88087 25.203 2.82351C26.5353 2.76615 27.5298 3.76038 27.517 5.08603C27.5043 6.37344 26.4843 7.40591 25.2094 7.40591ZM6.86227 7.41228C8.08621 7.45689 9.14441 6.39255 9.15716 5.09877C9.16353 3.78587 8.16908 2.80438 6.84314 2.83624C5.42796 2.86811 4.7395 3.73488 4.612 5.02229C4.49088 6.24596 5.61283 7.36129 6.86227 7.41228Z" fill="#003087"/>
</svg>
