<svg width="32" height="35" viewBox="0 0 32 35" fill="none" xmlns="http://www.w3.org/2000/svg">
<path d="M7.04083 31.7871C9.0753 30.054 10.9816 28.516 12.7875 26.8609C13.7295 25.9971 14.7105 25.6962 15.9646 25.7408C19.6434 25.8745 23.3278 25.908 27.0121 25.9637C29.2026 25.9971 29.9663 25.3061 30.1836 23.1606C30.2171 22.8096 30.2561 22.4473 30.3453 22.1074C30.4512 21.7117 30.741 21.5278 31.1591 21.5836C31.5883 21.6393 31.7165 21.9235 31.7889 22.3192C32.3129 25.1445 30.3676 27.5686 27.458 27.5519C23.6733 27.5296 19.8887 27.4404 16.1096 27.2955C15.1564 27.2565 14.4653 27.5073 13.7685 28.1147C11.578 30.0317 9.33727 31.8986 7.11885 33.7822C6.73425 34.1054 6.37753 34.5902 5.80342 34.3561C5.13455 34.0831 5.2962 33.4199 5.30177 32.8794C5.32407 31.4472 5.32406 30.015 5.42996 28.5884C5.49128 27.7525 5.2293 27.4683 4.38765 27.3401C1.1938 26.8665 0.0901704 25.5513 0.0678748 22.3526C0.0455792 19.3879 0.023285 16.4177 0.0344328 13.453C0.0344328 12.8456 -0.238684 11.9038 0.75347 11.8927C1.66202 11.8815 1.58398 12.7564 1.58398 13.414C1.60627 16.3787 1.61743 19.3489 1.62858 22.3136C1.63972 24.7265 2.47581 25.646 4.85029 25.8411C7.14116 26.0306 7.13557 26.0306 6.99623 28.3766C6.94049 29.2961 6.92936 30.2156 6.90706 31.1351C6.90706 31.2689 6.96279 31.4082 7.04083 31.7871Z" fill="#003087"/>
<path d="M16.5105 0.975133C20.1948 0.975133 23.8847 0.96956 27.5691 0.975133C30.1944 0.980706 31.9223 2.66924 31.939 5.23824C31.9669 8.92178 31.978 12.6109 31.9836 16.2944C31.9836 16.9241 32.1787 17.8269 31.2033 17.8158C30.2167 17.8046 30.4619 16.8907 30.4508 16.2721C30.3895 12.6387 30.3616 9.00536 30.3003 5.37198C30.2724 3.43826 29.4085 2.55221 27.4799 2.55221C20.0554 2.56335 12.631 2.58007 5.21216 2.64137C2.77637 2.65809 1.83437 3.63888 1.65043 6.102C1.63371 6.35834 1.63372 6.61469 1.61142 6.87103C1.56683 7.37815 1.35502 7.81281 0.808782 7.82395C0.217948 7.84067 0.112041 7.37257 0.0563015 6.87103C-0.350593 3.43269 1.78421 1.0253 5.30134 1.01972C9.03586 1.00858 12.7759 1.01972 16.5105 1.01972C16.5105 1.00301 16.5105 0.986278 16.5105 0.975133Z" fill="#003087"/>
<path d="M22.3131 11.6521C22.2294 12.187 21.895 12.4378 21.594 12.7164C19.2641 14.8675 16.9175 16.9907 14.6155 19.1696C13.8352 19.9052 13.2332 19.8718 12.5532 19.0916C11.5108 17.899 10.4407 16.7288 9.38161 15.5529C8.98587 15.1127 8.57899 14.6056 9.1531 14.104C9.72164 13.6136 10.1675 14.0706 10.5577 14.5164C11.3325 15.4025 12.163 16.2439 12.8876 17.1634C13.4561 17.8879 13.8519 17.7987 14.4706 17.2024C16.4995 15.252 18.5785 13.3629 20.6409 11.4514C20.9809 11.1394 21.332 10.8162 21.856 11.0056C22.2016 11.1282 22.235 11.4459 22.3131 11.6521Z" fill="#003087"/>
</svg>
