<svg width="32" height="32" viewBox="0 0 32 32" fill="none" xmlns="http://www.w3.org/2000/svg">
<path d="M19.9532 18.8266C20.9927 19.658 21.961 20.3648 22.852 21.1606C23.3272 21.5822 23.8915 22.182 23.2203 22.8175C22.6203 23.3758 22.1689 22.8175 21.7234 22.3899C20.7789 21.4813 19.7156 20.7092 18.5395 20.1213C17.0366 19.367 17.001 18.7435 18.4207 17.7754C21.6224 15.6018 22.9471 12.2582 22.0144 8.69492C21.1828 5.52357 18.4028 3.06488 15.213 2.66698C11.7261 2.23938 8.52436 3.95571 6.80171 7.11518C6.45718 7.75064 6.40372 9.09282 5.29885 8.57614C4.1524 8.0357 5.00778 7.01422 5.38201 6.32531C7.34226 2.67886 10.443 0.837813 14.5774 0.980346C18.6939 1.12288 22.0976 3.68252 23.446 7.58435C24.8063 11.5396 23.7965 14.9723 20.9155 17.912C20.6126 18.2208 20.2859 18.5118 19.9532 18.8266Z" fill="#003087"/>
<path d="M0.00629144 29.8428C0.730991 25.4124 2.81005 21.6472 6.78401 19.1232C7.73444 18.5174 7.71661 18.2739 6.96816 17.5435C5.81576 16.421 5.10889 14.9957 4.90098 13.3744C4.81782 12.7152 4.81188 11.9609 5.70884 11.8718C6.51076 11.7887 6.4573 12.5073 6.52858 13.024C6.80777 14.9897 7.95422 16.3794 9.46302 17.5672C10.5322 18.4105 10.4491 19.2538 9.27294 19.7765C4.78218 21.7779 2.47146 25.353 1.77052 30.0922C1.66954 30.7752 1.62201 31.5235 0.725051 31.4285C-0.0709304 31.3394 -0.00558887 30.6089 0.00629144 29.8428Z" fill="#003087"/>
<path d="M32.0003 23.3588C31.9884 23.8577 31.6261 24.1131 31.2993 24.4041C29.2025 26.3045 27.0878 28.1871 25.0206 30.1173C24.2424 30.8418 23.595 30.9546 22.7812 30.1767C21.7595 29.1967 20.6546 28.3119 19.6151 27.3557C19.2052 26.9815 18.8428 26.4886 19.2824 25.9304C19.7636 25.3187 20.2566 25.7166 20.6902 26.0492C21.0763 26.3461 21.4327 26.6846 21.7951 27.0172C23.8741 28.9236 23.8741 28.9176 26.0067 26.9697C27.4917 25.6097 28.9886 24.2675 30.4796 22.9134C30.8241 22.6046 31.1865 22.3968 31.6498 22.6699C31.8993 22.8244 32.0003 23.0678 32.0003 23.3588Z" fill="#003087"/>
</svg>
