<svg width="32" height="33" viewBox="0 0 32 33" fill="none" xmlns="http://www.w3.org/2000/svg">
<path d="M16 8.41797C15.0111 8.41797 14.0444 8.71121 13.2221 9.26062C12.3999 9.81003 11.759 10.5909 11.3806 11.5046C11.0022 12.4182 10.9031 13.4235 11.0961 14.3934C11.289 15.3633 11.7652 16.2542 12.4645 16.9535C13.1637 17.6528 14.0546 18.129 15.0245 18.3219C15.9945 18.5148 16.9998 18.4158 17.9134 18.0374C18.827 17.6589 19.6079 17.0181 20.1573 16.1958C20.7068 15.3736 21 14.4069 21 13.418C21 12.0919 20.4732 10.8201 19.5355 9.88243C18.5979 8.94475 17.3261 8.41797 16 8.41797ZM16 16.418C15.4067 16.418 14.8266 16.242 14.3333 15.9124C13.8399 15.5827 13.4554 15.1142 13.2284 14.566C13.0013 14.0178 12.9419 13.4146 13.0576 12.8327C13.1734 12.2508 13.4591 11.7162 13.8787 11.2966C14.2982 10.8771 14.8328 10.5914 15.4147 10.4756C15.9967 10.3599 16.5999 10.4193 17.1481 10.6463C17.6962 10.8734 18.1648 11.2579 18.4944 11.7513C18.8241 12.2446 19 12.8246 19 13.418C19 14.2136 18.6839 14.9767 18.1213 15.5393C17.5587 16.1019 16.7956 16.418 16 16.418ZM16 2.41797C13.0836 2.42128 10.2877 3.58126 8.22548 5.64345C6.1633 7.70563 5.00331 10.5016 5 13.418C5 17.343 6.81375 21.503 10.25 25.4492C11.794 27.2324 13.5318 28.8382 15.4312 30.2367C15.5994 30.3545 15.7997 30.4177 16.005 30.4177C16.2103 30.4177 16.4106 30.3545 16.5788 30.2367C18.4747 28.8376 20.2091 27.2319 21.75 25.4492C25.1812 21.503 27 17.343 27 13.418C26.9967 10.5016 25.8367 7.70563 23.7745 5.64345C21.7123 3.58126 18.9164 2.42128 16 2.41797ZM16 28.168C13.9338 26.543 7 20.5742 7 13.418C7 11.031 7.94821 8.74183 9.63604 7.05401C11.3239 5.36618 13.6131 4.41797 16 4.41797C18.3869 4.41797 20.6761 5.36618 22.364 7.05401C24.0518 8.74183 25 11.031 25 13.418C25 20.5717 18.0662 26.543 16 28.168Z" fill="#0047A3"/>
</svg>
