<svg width="24" height="25" viewBox="0 0 24 25" fill="none" xmlns="http://www.w3.org/2000/svg">
<path d="M21.5933 7.62098C21.4794 7.19838 21.2568 6.81298 20.9477 6.50314C20.6386 6.19331 20.2537 5.96984 19.8313 5.85498C18.2653 5.42498 12.0003 5.41798 12.0003 5.41798C12.0003 5.41798 5.73633 5.41098 4.16933 5.82198C3.74725 5.94212 3.36315 6.16875 3.0539 6.48011C2.74464 6.79147 2.52062 7.1771 2.40333 7.59998C1.99033 9.16598 1.98633 12.414 1.98633 12.414C1.98633 12.414 1.98233 15.678 2.39233 17.228C2.62233 18.085 3.29733 18.762 4.15533 18.993C5.73733 19.423 11.9853 19.43 11.9853 19.43C11.9853 19.43 18.2503 19.437 19.8163 19.027C20.2388 18.9123 20.6241 18.6894 20.934 18.3802C21.2439 18.071 21.4677 17.6862 21.5833 17.264C21.9973 15.699 22.0003 12.452 22.0003 12.452C22.0003 12.452 22.0203 9.18698 21.5933 7.62098ZM9.99633 15.423L10.0013 9.42298L15.2083 12.428L9.99633 15.423Z" fill="#0047A3"/>
</svg>
