<svg width="24" height="25" viewBox="0 0 24 25" fill="none" xmlns="http://www.w3.org/2000/svg">
<path fill-rule="evenodd" clip-rule="evenodd" d="M4.5 3.66016C3.67157 3.66016 3 4.33173 3 5.16016V20.1602C3 20.9886 3.67157 21.6602 4.5 21.6602H19.5C20.3284 21.6602 21 20.9886 21 20.1602V5.16016C21 4.33173 20.3284 3.66016 19.5 3.66016H4.5ZM8.52076 7.66288C8.52639 8.61913 7.81061 9.20835 6.96123 9.20413C6.16107 9.19991 5.46357 8.56288 5.46779 7.66429C5.47201 6.81913 6.13998 6.13991 7.00764 6.1596C7.88795 6.17929 8.52639 6.82476 8.52076 7.66288ZM12.2797 10.4219H9.75971H9.7583V18.9818H12.4217V18.7821C12.4217 18.4022 12.4214 18.0222 12.4211 17.6421C12.4203 16.6283 12.4194 15.6134 12.4246 14.5999C12.426 14.3538 12.4372 14.0979 12.5005 13.863C12.7381 12.9855 13.5271 12.4188 14.4074 12.5581C14.9727 12.6466 15.3467 12.9743 15.5042 13.5073C15.6013 13.8405 15.6449 14.1991 15.6491 14.5465C15.6605 15.5941 15.6589 16.6417 15.6573 17.6894C15.6567 18.0592 15.6561 18.4292 15.6561 18.799V18.9804H18.328V18.7751C18.328 18.3231 18.3278 17.8712 18.3275 17.4193C18.327 16.2898 18.3264 15.1603 18.3294 14.0304C18.3308 13.5199 18.276 13.0165 18.1508 12.5229C17.9638 11.7888 17.5771 11.1813 16.9485 10.7426C16.5027 10.4303 16.0133 10.2293 15.4663 10.2068C15.404 10.2042 15.3412 10.2008 15.2781 10.1974C14.9984 10.1822 14.7141 10.1669 14.4467 10.2208C13.6817 10.3741 13.0096 10.7243 12.5019 11.3416C12.4429 11.4124 12.3852 11.4843 12.2991 11.5916L12.2797 11.6159V10.4219ZM5.68164 18.9846H8.33242V10.4275H5.68164V18.9846Z" fill="#0047A3"/>
</svg>
