<svg width="32" height="33" viewBox="0 0 32 33" fill="none" xmlns="http://www.w3.org/2000/svg">
<path d="M28 6.41797H4C3.73478 6.41797 3.48043 6.52333 3.29289 6.71086C3.10536 6.8984 3 7.15275 3 7.41797V24.418C3 24.9484 3.21071 25.4571 3.58579 25.8322C3.96086 26.2073 4.46957 26.418 5 26.418H27C27.5304 26.418 28.0391 26.2073 28.4142 25.8322C28.7893 25.4571 29 24.9484 29 24.418V7.41797C29 7.15275 28.8946 6.8984 28.7071 6.71086C28.5196 6.52333 28.2652 6.41797 28 6.41797ZM16 17.0617L6.57125 8.41797H25.4287L16 17.0617ZM12.3387 16.418L5 23.1442V9.69172L12.3387 16.418ZM13.8188 17.7742L15.3188 19.1555C15.5032 19.3248 15.7446 19.4188 15.995 19.4188C16.2454 19.4188 16.4868 19.3248 16.6712 19.1555L18.1712 17.7742L25.4212 24.418H6.57125L13.8188 17.7742ZM19.6612 16.418L27 9.69047V23.1455L19.6612 16.418Z" fill="#0047A3"/>
</svg>
