<svg width="24" height="26" viewBox="0 0 24 26" fill="none" xmlns="http://www.w3.org/2000/svg">
<path fill-rule="evenodd" clip-rule="evenodd" d="M11.5342 0.414062C17.894 0.414062 23.0672 5.70607 23.0672 12.212C23.0672 15.2815 21.9157 18.0811 20.0313 20.1822L23.7392 23.9673C24.0862 24.3222 24.0873 24.8965 23.7403 25.2515C23.5674 25.4308 23.3388 25.5192 23.1115 25.5192C22.8853 25.5192 22.6579 25.4308 22.4838 25.2539L18.7312 21.4258C16.7571 23.043 14.2542 24.0112 11.5342 24.0112C5.17433 24.0112 0 18.718 0 12.212C0 5.70607 5.17433 0.414062 11.5342 0.414062ZM11.5342 2.23137C6.15377 2.23137 1.77649 6.70802 1.77649 12.212C1.77649 17.7161 6.15377 22.1939 11.5342 22.1939C16.9134 22.1939 21.2907 17.7161 21.2907 12.212C21.2907 6.70802 16.9134 2.23137 11.5342 2.23137Z" fill="#8A8A8A"/>
</svg>
