<svg width="32" height="33" viewBox="0 0 32 33" fill="none" xmlns="http://www.w3.org/2000/svg">
<path d="M22 2.41797H10C9.20435 2.41797 8.44129 2.73404 7.87868 3.29665C7.31607 3.85926 7 4.62232 7 5.41797V27.418C7 28.2136 7.31607 28.9767 7.87868 29.5393C8.44129 30.1019 9.20435 30.418 10 30.418H22C22.7956 30.418 23.5587 30.1019 24.1213 29.5393C24.6839 28.9767 25 28.2136 25 27.418V5.41797C25 4.62232 24.6839 3.85926 24.1213 3.29665C23.5587 2.73404 22.7956 2.41797 22 2.41797ZM9 8.41797H23V24.418H9V8.41797ZM10 4.41797H22C22.2652 4.41797 22.5196 4.52333 22.7071 4.71086C22.8946 4.8984 23 5.15275 23 5.41797V6.41797H9V5.41797C9 5.15275 9.10536 4.8984 9.29289 4.71086C9.48043 4.52333 9.73478 4.41797 10 4.41797ZM22 28.418H10C9.73478 28.418 9.48043 28.3126 9.29289 28.1251C9.10536 27.9375 9 27.6832 9 27.418V26.418H23V27.418C23 27.6832 22.8946 27.9375 22.7071 28.1251C22.5196 28.3126 22.2652 28.418 22 28.418Z" fill="#0047A3"/>
</svg>
