<svg width="24" height="25" viewBox="0 0 24 25" fill="none" xmlns="http://www.w3.org/2000/svg">
<path fill-rule="evenodd" clip-rule="evenodd" d="M16 3.66016H8C5.23858 3.66016 3 5.89874 3 8.66016V16.6602C3 19.4216 5.23858 21.6602 8 21.6602H16C18.7614 21.6602 21 19.4216 21 16.6602V8.66016C21 5.89874 18.7614 3.66016 16 3.66016ZM19.25 16.6602C19.2445 18.4528 17.7926 19.9047 16 19.9102H8C6.20735 19.9047 4.75549 18.4528 4.75 16.6602V8.66016C4.75549 6.86751 6.20735 5.41565 8 5.41016H16C17.7926 5.41565 19.2445 6.86751 19.25 8.66016V16.6602ZM16.75 8.91016C17.3023 8.91016 17.75 8.46244 17.75 7.91016C17.75 7.35788 17.3023 6.91016 16.75 6.91016C16.1977 6.91016 15.75 7.35788 15.75 7.91016C15.75 8.46244 16.1977 8.91016 16.75 8.91016ZM12 8.16016C9.51472 8.16016 7.5 10.1749 7.5 12.6602C7.5 15.1455 9.51472 17.1602 12 17.1602C14.4853 17.1602 16.5 15.1455 16.5 12.6602C16.5027 11.4659 16.0294 10.3197 15.1849 9.47524C14.3404 8.63075 13.1943 8.1575 12 8.16016ZM9.25 12.6602C9.25 14.179 10.4812 15.4102 12 15.4102C13.5188 15.4102 14.75 14.179 14.75 12.6602C14.75 11.1414 13.5188 9.91016 12 9.91016C10.4812 9.91016 9.25 11.1414 9.25 12.6602Z" fill="#0047A3"/>
</svg>
