<svg width="20" height="20" viewBox="0 0 20 20" fill="none" xmlns="http://www.w3.org/2000/svg">
<path d="M10.152 19.9734C12.7064 19.9734 15.1562 18.9212 16.9624 17.0484C18.7687 15.1755 19.7834 12.6353 19.7834 9.98671C19.7834 7.33807 18.7687 4.79791 16.9624 2.92504C15.1562 1.05217 12.7064 0 10.152 0C7.59754 0 5.14774 1.05217 3.34149 2.92504C1.53525 4.79791 0.520508 7.33807 0.520508 9.98671C0.520508 12.6353 1.53525 15.1755 3.34149 17.0484C5.14774 18.9212 7.59754 19.9734 10.152 19.9734ZM8.64704 13.1076H9.54999V10.6109H8.64704C8.14666 10.6109 7.74409 10.1935 7.74409 9.67462C7.74409 9.15578 8.14666 8.73837 8.64704 8.73837H10.4529C10.9533 8.73837 11.3559 9.15578 11.3559 9.67462V13.1076H11.6569C12.1573 13.1076 12.5598 13.525 12.5598 14.0438C12.5598 14.5626 12.1573 14.9801 11.6569 14.9801H8.64704C8.14666 14.9801 7.74409 14.5626 7.74409 14.0438C7.74409 13.525 8.14666 13.1076 8.64704 13.1076ZM10.152 4.99335C10.4713 4.99335 10.7775 5.12488 11.0033 5.35898C11.229 5.59309 11.3559 5.91061 11.3559 6.24169C11.3559 6.57277 11.229 6.89029 11.0033 7.1244C10.7775 7.35851 10.4713 7.49003 10.152 7.49003C9.83265 7.49003 9.52643 7.35851 9.30065 7.1244C9.07487 6.89029 8.94803 6.57277 8.94803 6.24169C8.94803 5.91061 9.07487 5.59309 9.30065 5.35898C9.52643 5.12488 9.83265 4.99335 10.152 4.99335Z" fill="white"/>
</svg>
