<svg width="16" height="16" viewBox="0 0 16 16" fill="none" xmlns="http://www.w3.org/2000/svg">
<path d="M8.2826 0C10.2387 0 12.1146 0.842855 13.4978 2.34315C14.8809 3.84344 15.658 5.87827 15.658 8C15.658 10.1217 14.8809 12.1566 13.4978 13.6569C12.1146 15.1571 10.2387 16 8.2826 16C6.32653 16 4.45058 15.1571 3.06742 13.6569C1.68427 12.1566 0.907227 10.1217 0.907227 8C0.907227 5.87827 1.68427 3.84344 3.06742 2.34315C4.45058 0.842855 6.32653 0 8.2826 0ZM7.59116 3.75V8C7.59116 8.25 7.7064 8.48438 7.89943 8.625L10.6652 10.625C10.9821 10.8563 11.4114 10.7625 11.6246 10.4156C11.8378 10.0687 11.7513 9.60625 11.4315 9.375L8.97404 7.6V3.75C8.97404 3.33437 8.66578 3 8.2826 3C7.89943 3 7.59116 3.33437 7.59116 3.75Z" fill="#8883B8"/>
</svg>
