<svg width="32" height="34" fill="none" xmlns="http://www.w3.org/2000/svg"><path fill-rule="evenodd" clip-rule="evenodd" d="M31.917 19.937c.003 2.633.006 5.267-.008 7.898-.013 2.99-2.013 5.049-4.991 5.094-6.118.09-12.242.162-18.366.194-3.133.02-5.256-2.103-5.178-5.262.038-1.456-.085-2.44-1.91-2.11-.583.104-1.133-.161-1.146-.815-.013-.744.59-1.068 1.224-.964 1.747.278 1.987-.635 1.8-2.046a8.636 8.636 0 0 1-.014-1.96c.156-1.49-.02-2.596-1.974-2.214-.654.13-1.275-.188-1.314-.874-.046-.835.699-1.139 1.366-1.035 1.735.271 2.013-.602 1.806-2.013a6.157 6.157 0 0 1-.026-1.424c.123-1.514.175-2.912-2.072-2.44-.608.13-1.094-.265-1.113-.874-.026-.647.544-.99 1.087-.88 2.003.397 2.058-.7 2.134-2.225l.003-.053c.149-2.88 2.414-4.919 5.314-4.938 6.3-.04 12.598-.026 18.903.02 2.577.018 4.532 2.077 4.544 4.71.019 2.578.015 5.155.01 7.734v.001c-.001 1.107-.003 2.213-.003 3.32h-.078l.002 3.154v.001Zm-1.886-3.085c0 1.052.002 2.105.004 3.157.004 2.456.008 4.911-.01 7.367-.02 2.653-1.036 3.734-3.625 3.76-5.943.065-11.892.097-17.835.097-2.246 0-3.23-1.016-3.262-3.294-.098-6.957-.188-13.909-.253-20.866-.026-2.99 1.224-4.226 4.208-4.246 5.651-.032 11.296-.058 16.948-.07C29.203 2.75 30.2 3.81 30.18 6.852c-.014 2.377-.01 4.756-.008 7.135l.002 2.851c-.045.013-.09.013-.142.013Zm-9.989-6.907h-.002l-1.777.002c0-.007 0-.013.006-.026H12.536c-.596.006-1.24.012-1.278.815-.038.77.55.977 1.198.984 3.729.02 7.464.026 11.2.026.627 0 1.23-.143 1.216-.952-.013-.847-.673-.847-1.275-.847-1.187-.005-2.37-.003-3.555-.002Zm-2.135 6.163c.63 0 1.26 0 1.89.002 1.263 0 2.526.002 3.787-.002.654 0 1.23.142 1.236.92 0 .815-.64.88-1.262.88-1.835 0-3.669-.004-5.503-.007-1.833-.003-3.667-.007-5.502-.007-.64 0-1.256-.097-1.237-.9.02-.77.615-.899 1.263-.892 1.33.01 2.66.008 3.99.007l1.331-.001c.007-.006.007 0 .007 0Zm-2.33 5.832c-.245.003-.489.006-.732.006v.11l-.893.001c-.593.002-1.185.003-1.78-.001-.551-.007-.927.24-.998.796-.07.582.311.951.816.958 1.838.02 3.677-.013 5.509-.09.492-.02.926-.37.86-.946-.057-.55-.523-.79-1.022-.815a26.625 26.625 0 0 0-1.76-.019Z" fill="#003087"/></svg>