<svg width="32" height="32" fill="none" xmlns="http://www.w3.org/2000/svg"><path fill-rule="evenodd" clip-rule="evenodd" d="M31.514 18.228c-.752-3.365-1.734-6.686-4.545-9.21 2.62-2.25 3.11-4.716 1.377-6.647C26.759.606 24.113.497 22.41 2.129c-1.95 1.86-1.69 4.308.727 6.64-.095.088-.19.174-.286.26-.29.264-.582.527-.855.805-.447.459-.67.994-.153 1.53.479.504.903.188 1.338-.136l.032-.024c1.843-1.37 2.62-1.217 3.933.682 1.531 2.22 2.13 4.766 2.73 7.315l.165.697c.203.847-.115 1.02-.861 1-.988-.025-1.983-.032-2.97.051-.574.045-1.256.223-1.167 1.007.083.746.752.81 1.351.81.314 0 .63-.021.947-.042.21-.014.42-.027.628-.035 4.405-.172 4.494-.191 3.544-4.461ZM18.26 9.114c3.417 3.35 4.226 7.62 5.03 11.87l.001.001.127.665c.146.778-.39 1.205-1.154 1.205-4.093.006-8.185 0-12.284-.013-.963 0-1.428-.522-1.224-1.466.091-.416.18-.834.268-1.252.832-3.925 1.665-7.86 4.914-10.717.76-.668.308-.917-.091-1.137-.137-.076-.269-.148-.342-.233-1.37-1.6-1.396-4.104.025-5.583 1.524-1.587 3.895-1.772 5.56-.44 2.364 1.893 2.045 4.78-.83 7.1Zm-5.085 22.301h-.001c-2.76.001-5.523.002-8.281-.007-.523 0-1.065-.038-1.556-.191-1.931-.612-3.244-2.34-3.06-3.94.204-1.726 2.327-3.358 4.54-3.377 3.594-.029 7.186-.025 10.779-.021h.005l3.59.002H20.734c2.057-.002 4.116-.003 6.17.013h.066c.502 0 1.02 0 1.49.134 2.231.63 3.62 2.294 3.442 4.04-.172 1.702-2.34 3.308-4.57 3.34-1.284.017-2.57.011-3.856.005-.643-.002-1.285-.005-1.926-.005h-5.615l-.001.006-2.755.001h-.003ZM5.186 9.031C2.458 6.61 2.018 4.124 3.97 2.2 5.664.529 8.354.574 9.916 2.295c1.709 1.886 1.307 4.537-1.02 6.405l.257.215c.18.149.358.296.527.46l.159.15c.517.485 1.098 1.028.498 1.75-.62.743-1.076.265-1.506-.185a4.423 4.423 0 0 0-.31-.306c-1.091-.924-2.066-.625-2.895.338-2.144 2.473-2.801 5.542-3.458 8.609l-.086.402c-.165.779.323.772.797.766h.172c.316.005.633.006.95.007a27.17 27.17 0 0 1 2.02.056c.51.045 1.09.223 1.058.93-.025.689-.573.867-1.109.867a140.283 140.283 0 0 1-3.683-.079l-1.219-.035c-.714-.02-1.02-.402-1.058-1.11-.198-3.307 2.607-10.101 5.176-12.504Zm21.477 16.66H16.15v.013l-3.564-.002c-2.375-.001-4.751-.003-7.127.002-1.466 0-2.907.242-3.353 1.873-.287 1.033 1.428 2.027 3.36 2.027 7.07.006 14.133.006 21.202 0 1.893 0 3.672-1.039 3.372-2.033-.478-1.593-1.9-1.88-3.378-1.88ZM14.5 21.088H14.5c-.975-.001-1.95-.003-2.927.002h-.069c-.533.008-1.005.015-.791-.816l.113-.446c.724-2.855 1.45-5.714 3.304-8.101 1.44-1.855 2.652-1.835 4.067.032 1.718 2.262 2.344 4.949 2.97 7.632.063.274.127.547.192.819.172.726-.179.911-.842.899-1.05-.023-2.104-.017-3.157-.012-.467.003-.934.005-1.4.005v-.012l-1.458-.002H14.5Zm4.346-15.817c.038-1.186-1.084-2.314-2.327-2.333-1.236-.019-2.301 1.065-2.218 2.365.09 1.306.771 2.186 2.154 2.262 1.23.07 2.346-1.064 2.391-2.294Zm6.362 2.135c-1.21 0-2.358-1.154-2.237-2.384.127-1.3.835-2.141 2.231-2.198 1.332-.058 2.327.936 2.314 2.262-.013 1.287-1.033 2.32-2.308 2.32Zm-18.347.006c1.224.045 2.282-1.02 2.295-2.313.007-1.313-.988-2.295-2.314-2.263-1.415.032-2.104.899-2.231 2.186-.121 1.224 1 2.34 2.25 2.39Z" fill="#003087"/></svg>