<svg width="32" height="35" fill="none" xmlns="http://www.w3.org/2000/svg"><path d="M7.04 31.787c2.035-1.733 3.942-3.271 5.747-4.926.942-.864 1.923-1.165 3.178-1.12 3.678.134 7.363.167 11.047.223 2.19.033 2.954-.658 3.172-2.803a6.68 6.68 0 0 1 .161-1.054c.106-.395.396-.58.814-.523.43.055.558.34.63.735.524 2.826-1.421 5.25-4.331 5.233-3.785-.022-7.57-.112-11.348-.256-.954-.04-1.645.211-2.341.819-2.191 1.917-4.432 3.784-6.65 5.667-.385.323-.741.808-1.316.574-.668-.273-.507-.936-.501-1.477.022-1.432.022-2.864.128-4.29.061-.836-.2-1.12-1.042-1.249-3.194-.474-4.298-1.789-4.32-4.987a789.445 789.445 0 0 1-.034-8.9c0-.607-.273-1.55.72-1.56.908-.011.83.863.83 1.521.022 2.965.033 5.935.045 8.9.01 2.413.847 3.332 3.221 3.527 2.291.19 2.286.19 2.146 2.536-.056.92-.067 1.839-.089 2.758 0 .134.056.273.134.652ZM16.51.975c3.685 0 7.375-.005 11.06 0 2.624.006 4.352 1.694 4.369 4.263.028 3.684.039 7.373.045 11.056 0 .63.195 1.533-.78 1.522-.987-.011-.742-.925-.753-1.544-.061-3.633-.09-7.267-.15-10.9-.029-1.934-.892-2.82-2.821-2.82-7.425.011-14.849.028-22.268.09-2.436.016-3.378.997-3.562 3.46-.016.256-.016.513-.039.769-.044.507-.256.942-.802.953-.591.017-.697-.451-.753-.953C-.35 3.433 1.784 1.025 5.301 1.02c3.735-.011 7.475 0 11.21 0V.975Z" fill="#003087"/><path d="M22.313 11.652c-.084.535-.418.786-.719 1.064-2.33 2.152-4.677 4.275-6.979 6.454-.78.735-1.382.702-2.062-.078-1.042-1.193-2.112-2.363-3.171-3.54-.396-.44-.803-.946-.229-1.448.569-.49 1.014-.033 1.405.412.774.886 1.605 1.728 2.33 2.647.568.725.964.636 1.583.04 2.029-1.951 4.107-3.84 6.17-5.752.34-.312.691-.635 1.215-.445.346.122.379.44.457.646Z" fill="#003087"/></svg>