<svg width="32" height="32" fill="none" xmlns="http://www.w3.org/2000/svg"><path d="M19.953 18.827c1.04.831 2.008 1.538 2.899 2.334.475.421 1.04 1.021.368 1.656-.6.559-1.051 0-1.497-.427a12.953 12.953 0 0 0-3.183-2.269c-1.503-.754-1.539-1.377-.12-2.346 3.202-2.173 4.527-5.517 3.594-9.08-.831-3.171-3.611-5.63-6.801-6.028-3.487-.428-6.689 1.289-8.411 4.448-.345.636-.398 1.978-1.503 1.461-1.147-.54-.291-1.562.083-2.25C7.342 2.678 10.443.837 14.577.98c4.117.143 7.52 2.703 8.869 6.604 1.36 3.956.35 7.388-2.53 10.328-.303.309-.63.6-.963.915ZM.006 29.843c.725-4.43 2.804-8.196 6.778-10.72.95-.606.933-.85.184-1.58a6.96 6.96 0 0 1-2.067-4.169c-.083-.659-.09-1.413.808-1.502.802-.083.748.635.82 1.152.279 1.966 1.425 3.355 2.934 4.543 1.07.843.986 1.687-.19 2.21-4.49 2-6.802 5.576-7.502 10.315-.101.683-.149 1.431-1.046 1.337-.796-.09-.73-.82-.719-1.586ZM32 23.359c-.012.499-.374.754-.7 1.045-2.098 1.9-4.212 3.783-6.28 5.713-.778.725-1.425.838-2.239.06-1.021-.98-2.126-1.865-3.166-2.821-.41-.375-.772-.867-.333-1.426.482-.611.975-.213 1.408.12.386.296.743.635 1.105.967 2.08 1.907 2.08 1.9 4.212-.047 1.485-1.36 2.982-2.703 4.473-4.057.344-.308.706-.516 1.17-.243.25.154.35.398.35.689Z" fill="#003087"/></svg>