<svg width="24" height="26" fill="none" xmlns="http://www.w3.org/2000/svg"><path fill-rule="evenodd" clip-rule="evenodd" d="M11.534.414c6.36 0 11.533 5.292 11.533 11.798 0 3.07-1.151 5.87-3.036 7.97l3.708 3.785c.347.355.348.93.001 1.285a.87.87 0 0 1-1.256.002l-3.753-3.828a11.318 11.318 0 0 1-7.197 2.585C5.174 24.011 0 18.718 0 12.212 0 5.706 5.174.414 11.534.414Zm0 1.817c-5.38 0-9.758 4.477-9.758 9.981s4.378 9.982 9.758 9.982c5.38 0 9.757-4.478 9.757-9.982s-4.378-9.98-9.757-9.98Z" fill="#8A8A8A"/></svg>