<svg width="20" height="20" fill="none" xmlns="http://www.w3.org/2000/svg"><path d="M10.152 19.973c2.554 0 5.004-1.052 6.81-2.925 1.807-1.872 2.821-4.413 2.821-7.061 0-2.649-1.014-5.19-2.82-7.062C15.155 1.052 12.705 0 10.151 0c-2.554 0-5.004 1.052-6.81 2.925C1.534 4.798.52 7.338.52 9.987c0 2.648 1.014 5.188 2.82 7.061 1.807 1.873 4.257 2.925 6.811 2.925Zm-1.505-6.865h.903V10.61h-.903c-.5 0-.903-.418-.903-.936 0-.52.403-.937.903-.937h1.806c.5 0 .903.418.903.937v3.433h.3c.501 0 .904.417.904.936 0 .519-.403.936-.903.936h-3.01c-.5 0-.903-.417-.903-.936 0-.519.403-.936.903-.936Zm1.505-8.115c.32 0 .626.132.851.366.226.234.353.552.353.883 0 .33-.127.648-.353.882a1.183 1.183 0 0 1-.851.366c-.32 0-.626-.131-.851-.366a1.272 1.272 0 0 1-.353-.882c0-.331.127-.649.353-.883.225-.234.532-.366.851-.366Z" fill="#fff"/></svg>